<svg xmlns="http://www.w3.org/2000/svg" width="1000" height="1000" id="empty" style=""><g id="icon"><path fill="#ffffff" d="M120.18088642394969 249.88765377006652L120.18088642394969 510.7806537700665L317.54788642394965 510.7806537700665L317.54788642394965 107.45165377006653L120.18088642394969 249.88765377006652ZM294.3628864239497 326.2956537700665L276.7128864239497 345.14265377006654C275.7358864239497 342.86165377006654 274.6168864239497 340.61365377006655 273.3488864239497 338.4106537700665C272.08088642394966 336.21265377006654 270.6978864239497 334.12065377006655 269.2138864239497 332.1346537700665L294.3628864239497 326.2956537700665ZM274.6738864239497 369.8266537700665C274.6738864239497 400.64965377006655 249.68588642394968 425.63765377006655 218.86288642394967 425.63765377006655C188.03688642394968 425.63765377006655 163.0528864239497 400.6506537700665 163.0528864239497 369.8266537700665C163.0528864239497 339.00565377006654 188.0358864239497 314.01665377006657 218.86288642394967 314.01665377006657C249.68588642394968 314.01765377006654 274.6738864239497 339.00565377006654 274.6738864239497 369.8266537700665ZM262.4618864239497 294.3656537700665L256.60088642394965 319.51265377006655C254.6168864239497 318.02765377006654 252.52388642394968 316.64065377006654 250.3238864239497 315.3696537700665C248.12688642394968 314.09765377006653 245.8788864239497 312.9776537700665 243.60188642394968 312.0016537700665L262.4618864239497 294.3656537700665ZM218.86388642394968 282.6776537700665L226.37088642394968 307.38265377006655C223.9098864239497 307.08865377006657 221.4038864239497 306.93565377006655 218.86388642394968 306.93565377006655C216.3238864239497 306.93565377006655 213.82088642394967 307.08865377006657 211.35788642394968 307.38265377006655L218.86388642394968 282.6776537700665ZM194.3298864239497 311.91565377006657C192.0478864239497 312.8846537700665 189.7978864239497 313.99665377006653 187.58988642394968 315.26265377006655C185.3868864239497 316.5236537700665 183.29188642394968 317.9046537700665 181.3028864239497 319.3796537700665L175.52988642394968 294.21265377006654L194.3298864239497 311.91565377006657ZM168.6488864239497 331.9536537700665C167.15988642394967 333.9376537700665 165.7648864239497 336.0256537700665 164.48988642394968 338.22465377006654C163.21288642394967 340.4176537700665 162.0888864239497 342.6626537700665 161.1048864239497 344.9376537700665L143.51588642394967 326.03265377006653L168.6488864239497 331.9536537700665ZM156.4378864239497 362.15465377006655C156.1398864239497 364.6176537700665 155.97688642394968 367.12165377006653 155.97188642394968 369.6656537700665C155.9618864239497 372.2016537700665 156.11388642394968 374.7086537700665 156.3988864239497 377.1676537700665L131.7118864239497 369.59965377006654L156.4378864239497 362.15465377006655ZM143.2878864239497 413.2276537700665L160.9738864239497 394.4136537700665C161.9448864239497 396.6946537700665 163.0578864239497 398.94365377006653 164.32588642394967 401.1506537700665C165.58988642394968 403.34965377006654 166.97188642394968 405.44365377006653 168.4498864239497 407.43165377006653L143.2878864239497 413.2276537700665ZM175.1348864239497 445.2116537700665L181.0358864239497 420.0736537700665C183.0208864239497 421.5646537700665 185.1098864239497 422.95565377006653 187.3068864239497 424.22965377006653C189.5028864239497 425.5046537700665 191.74488642394968 426.62565377006655 194.0218864239497 427.60965377006653L175.1348864239497 445.2116537700665ZM218.7118864239497 456.97865377006656L211.24488642394968 432.25865377006653C213.70888642394968 432.55565377006656 216.2118864239497 432.71665377006656 218.75588642394968 432.71765377006653C221.2948864239497 432.72465377006654 223.79888642394968 432.5736537700665 226.25788642394969 432.2856537700665L218.7118864239497 456.97865377006656ZM243.4988864239497 427.6966537700665C245.7788864239497 426.7206537700665 248.0268864239497 425.6076537700665 250.23388642394968 424.3406537700665C252.4308864239497 423.07265377006655 254.52388642394968 421.6916537700665 256.5108864239497 420.2086537700665L262.3298864239497 445.36565377006656L243.4988864239497 427.6966537700665ZM269.1448864239497 407.6106537700665C270.6318864239497 405.62765377006656 272.0218864239497 403.5376537700665 273.2958864239497 401.33765377006654C274.56688642394965 399.1396537700665 275.6858864239497 396.8966537700665 276.6668864239497 394.61665377006653L294.28788642394966 413.4896537700665L269.1448864239497 407.6106537700665ZM281.3028864239497 377.3896537700665C281.59588642394965 374.92665377006654 281.75388642394967 372.42165377006654 281.75388642394967 369.8796537700665C281.7608864239497 367.34165377006656 281.6058864239497 364.8406537700665 281.3158864239497 362.37565377006655L306.01388642394966 369.9036537700665L281.3028864239497 377.3896537700665Z " transform="matrix(1.6267833723357747,0,0,1.6267833723357747,-30.32064563674311,-24.800564973907612)"></path><path fill="#ffffff" d="M448.1558864239497 374.6726537700665L450.8778864239497 356.5386537700665L436.5358864239497 367.9636537700665C435.25888642394966 368.98165377006654 433.4458864239497 368.98165377006654 432.1688864239497 367.9636537700665L417.8278864239497 356.5386537700665L420.5508864239497 374.6726537700665C420.7928864239497 376.2856537700665 419.8898864239497 377.8556537700665 418.36688642394967 378.4516537700665L401.3038864239497 385.1606537700665L418.36688642394967 391.8696537700665C419.8888864239497 392.46665377006656 420.7928864239497 394.0356537700665 420.5508864239497 395.64965377006655L417.8278864239497 413.78265377006653L432.1688864239497 402.35865377006655C432.8078864239497 401.8486537700665 433.5818864239497 401.5956537700665 434.3528864239497 401.5956537700665C435.12388642394967 401.5956537700665 435.89788642394967 401.8486537700665 436.5368864239497 402.35865377006655L450.8778864239497 413.78265377006653L448.1558864239497 395.64965377006655C447.9138864239497 394.0356537700665 448.8198864239497 392.4656537700665 450.3398864239497 391.8676537700665L467.40288642394967 385.1606537700665L450.3398864239497 378.4536537700665C448.8198864239497 377.85665377006654 447.9128864239497 376.2876537700665 448.1558864239497 374.6726537700665Z " transform="matrix(1.6267833723357747,0,0,1.6267833723357747,-30.32064563674311,-24.800564973907612)"></path><path fill="#ffffff" d="M334.4398864239497 134.42065377006654L334.4398864239497 537.7486537700665L531.8058864239497 537.7486537700665L531.8058864239497 276.8576537700665L334.4398864239497 134.42065377006654ZM504.2238864239497 357.59465377006654C505.99188642394967 358.38065377006654 506.7878864239497 360.4516537700665 506.0008864239497 362.21965377006654C505.4208864239497 363.52465377006655 504.1398864239497 364.29865377006655 502.7978864239497 364.29865377006655C502.3208864239497 364.29865377006655 501.8368864239497 364.2016537700665 501.3728864239497 363.9946537700665L488.18888642394967 358.12565377006655L480.4218864239497 362.6076537700665L502.7718864239497 372.5576537700665C504.53988642394967 373.34465377006654 505.3338864239497 375.4156537700665 504.5458864239497 377.18365377006654C503.9648864239497 378.48865377006655 502.6848864239497 379.2636537700665 501.34288642394966 379.2636537700665C500.8678864239497 379.2636537700665 500.3848864239497 379.16465377006654 499.91988642394966 378.9586537700665L472.9228864239497 366.93865377006654L459.6688864239497 374.5906537700665L478.26088642394967 381.8986537700665C479.59988642394967 382.4256537700665 480.4838864239497 383.7206537700665 480.4838864239497 385.15965377006654C480.4838864239497 386.59965377006654 479.59988642394967 387.89265377006654 478.26088642394967 388.4206537700665L459.6658864239497 395.7306537700665L472.9228864239497 403.38265377006655L499.91988642394966 391.36165377006654C501.6878864239497 390.5746537700665 503.75888642394966 391.3696537700665 504.5458864239497 393.1366537700665C505.3328864239497 394.90665377006655 504.5388864239497 396.97665377006655 502.7718864239497 397.76265377006655L480.4218864239497 407.71465377006655L488.18888642394967 412.19565377006654L501.3728864239497 406.3266537700665C503.1438864239497 405.5386537700665 505.2138864239497 406.3336537700665 506.0008864239497 408.1006537700665C506.7878864239497 409.87065377006655 505.9908864239497 411.94065377006655 504.2238864239497 412.7276537700665L495.6898864239497 416.52765377006654L504.7208864239497 421.74165377006653C506.3948864239497 422.70965377006655 506.9718864239497 424.8526537700665 506.0048864239497 426.5266537700665C505.3528864239497 427.6506537700665 504.1758864239497 428.27965377006655 502.9658864239497 428.27965377006655C502.37188642394966 428.27965377006655 501.7698864239497 428.12865377006653 501.21788642394966 427.80865377006654L492.18688642394966 422.5956537700665L493.16488642394967 431.88565377006654C493.3678864239497 433.8116537700665 491.96788642394966 435.53465377006654 490.0458864239497 435.7376537700665C489.9228864239497 435.7516537700665 489.7968864239497 435.75865377006653 489.6748864239497 435.75865377006653C487.9038864239497 435.75865377006653 486.3848864239497 434.41965377006653 486.1948864239497 432.6196537700665L484.6848864239497 418.26565377006654L476.9208864239497 413.78265377006653L479.4788864239497 438.11165377006654C479.6788864239497 440.03465377006654 478.2858864239497 441.7596537700665 476.35988642394966 441.96265377006654C476.2378864239497 441.9756537700665 476.11188642394967 441.98365377006655 475.9888864239497 441.98365377006655C474.21788642394966 441.98365377006655 472.6998864239497 440.6436537700665 472.5098864239497 438.84465377006654L469.4228864239497 409.4516537700665L456.1658864239497 401.80165377006654L459.1328864239497 421.55665377006653C459.34988642394967 422.9806537700665 458.6688864239497 424.3916537700665 457.4208864239497 425.1106537700665C456.1718864239497 425.83265377006654 454.6108864239497 425.7156537700665 453.48488642394966 424.81765377006656L437.8568864239497 412.37065377006655L437.8568864239497 427.6756537700665L461.7678864239497 445.04665377006654C463.3318864239497 446.18365377006654 463.6798864239497 448.37565377006655 462.5418864239497 449.9416537700665C461.4058864239497 451.50565377006654 459.21288642394967 451.85465377006653 457.64788642394967 450.7156537700665L437.8558864239497 436.3366537700665L437.8558864239497 445.3046537700665L449.53288642394966 453.7876537700665C451.09988642394967 454.9246537700665 451.4448864239497 457.11665377006653 450.3098864239497 458.6826537700665C449.6258864239497 459.6246537700665 448.5548864239497 460.12565377006655 447.4708864239497 460.12565377006655C446.7548864239497 460.12565377006655 446.0348864239497 459.90765377006653 445.4128864239497 459.4566537700665L437.85488642394967 453.96665377006656L437.85488642394967 464.3916537700665C437.85488642394967 466.32765377006655 436.2878864239497 467.8966537700665 434.3518864239497 467.8966537700665C432.4158864239497 467.8966537700665 430.8488864239497 466.32765377006655 430.8488864239497 464.3916537700665L430.8488864239497 453.96665377006656L423.2918864239497 459.4566537700665C421.7278864239497 460.59765377006653 419.5338864239497 460.24665377006653 418.39588642394966 458.6826537700665C417.2598864239497 457.1176537700665 417.60488642394967 454.9246537700665 419.1728864239497 453.7876537700665L430.8488864239497 445.3046537700665L430.8488864239497 436.3366537700665L411.05688642394966 450.7156537700665C410.4348864239497 451.16665377006655 409.7148864239497 451.3866537700665 408.99888642394967 451.3866537700665C407.9188864239497 451.3866537700665 406.8518864239497 450.8846537700665 406.1638864239497 449.9416537700665C405.0248864239497 448.3766537700665 405.37388642394967 446.18365377006654 406.9378864239497 445.04665377006654L430.84788642394966 427.6756537700665L430.84788642394966 412.37065377006655L415.2208864239497 424.81765377006656C414.58788642394967 425.3236537700665 413.8148864239497 425.58065377006653 413.0358864239497 425.58065377006653C412.4358864239497 425.58065377006653 411.8298864239497 425.4256537700665 411.2848864239497 425.1106537700665C410.03988642394967 424.3916537700665 409.3588864239497 422.9806537700665 409.5718864239497 421.55665377006653L412.53988642394967 401.7996537700665L399.2858864239497 409.4516537700665L396.19888642394966 438.84465377006654C396.0058864239497 440.6436537700665 394.4858864239497 441.98365377006655 392.7158864239497 441.98365377006655C392.5968864239497 441.98365377006655 392.4708864239497 441.9756537700665 392.3448864239497 441.96265377006654C390.4228864239497 441.76065377006654 389.0268864239497 440.03465377006654 389.22988642394967 438.11165377006654L391.7848864239497 413.78265377006653L384.0198864239497 418.26565377006654L382.51088642394967 432.6196537700665C382.3228864239497 434.41965377006653 380.8008864239497 435.7566537700665 379.0308864239497 435.75865377006653C378.90788642394966 435.75865377006653 378.7858864239497 435.75065377006655 378.6598864239497 435.7376537700665C376.73688642394967 435.5356537700665 375.3408864239497 433.8116537700665 375.5438864239497 431.88565377006654L376.5188864239497 422.59465377006654L367.4908864239497 427.80865377006654C366.93888642394967 428.12765377006656 366.33588642394966 428.27965377006655 365.7388864239497 428.27965377006655C364.5298864239497 428.27965377006655 363.3518864239497 427.6506537700665 362.7038864239497 426.5266537700665C361.7358864239497 424.8506537700665 362.3098864239497 422.70765377006654 363.98488642394966 421.7396537700665L373.01588642394967 416.52765377006654L364.4808864239497 412.7276537700665C362.71288642394967 411.9396537700665 361.91988642394966 409.86865377006654 362.7078864239497 408.1006537700665C363.4958864239497 406.33265377006654 365.5648864239497 405.5376537700665 367.3328864239497 406.32565377006654L380.5188864239497 412.19565377006654L388.2838864239497 407.71465377006655L365.93688642394966 397.76265377006655C364.1658864239497 396.97665377006655 363.3728864239497 394.90665377006655 364.1598864239497 393.1366537700665C364.9468864239497 391.36865377006654 367.02088642394966 390.5736537700665 368.7848864239497 391.36165377006654L395.7858864239497 403.38265377006655L409.03988642394967 395.7306537700665L390.4478864239497 388.4206537700665C389.1058864239497 387.8936537700665 388.22488642394967 386.6006537700665 388.22488642394967 385.15965377006654C388.22488642394967 383.72165377006655 389.1058864239497 382.42665377006654 390.4478864239497 381.89965377006655L409.0368864239497 374.5906537700665L395.7858864239497 366.93865377006654L368.7848864239497 378.9586537700665C368.32388642394966 379.16465377006654 367.8408864239497 379.2636537700665 367.3628864239497 379.2636537700665C366.02088642394966 379.2636537700665 364.7398864239497 378.48865377006655 364.1598864239497 377.18365377006654C363.3728864239497 375.4156537700665 364.1668864239497 373.34465377006654 365.93688642394966 372.5576537700665L388.2838864239497 362.6076537700665L380.5188864239497 358.12565377006655L367.3328864239497 363.99665377006653C366.8678864239497 364.2016537700665 366.3848864239497 364.2996537700665 365.9098864239497 364.2996537700665C364.5678864239497 364.2996537700665 363.2878864239497 363.52465377006655 362.7078864239497 362.22165377006655C361.9208864239497 360.4516537700665 362.7138864239497 358.38065377006654 364.4808864239497 357.59465377006654L373.01588642394967 353.79465377006653L363.98488642394966 348.57965377006656C362.3098864239497 347.6126537700665 361.7358864239497 345.46965377006654 362.7038864239497 343.7956537700665C363.6718864239497 342.1176537700665 365.8128864239497 341.5456537700665 367.4908864239497 342.5116537700665L376.5188864239497 347.7256537700665L375.5438864239497 338.4366537700665C375.3408864239497 336.51065377006654 376.73688642394967 334.78665377006655 378.6598864239497 334.58465377006655C380.5888864239497 334.3796537700665 382.3108864239497 335.77765377006654 382.5118864239497 337.7036537700665L384.02088642394966 352.0576537700665L391.7858864239497 356.5386537700665L389.2308864239497 332.21065377006653C389.02788642394967 330.28665377006655 390.4238864239497 328.5626537700665 392.34988642394967 328.3606537700665C394.2748864239497 328.1556537700665 395.99688642394966 329.55365377006655 396.20088642394967 331.4776537700665L399.2878864239497 360.87065377006655L412.5418864239497 368.5216537700665L409.57388642394966 348.7646537700665C409.3608864239497 347.3406537700665 410.0388864239497 345.93165377006653 411.2868864239497 345.2116537700665C412.5348864239497 344.49065377006656 414.0968864239497 344.6076537700665 415.22288642394966 345.50565377006654L430.84988642394967 357.95065377006654L430.84988642394967 342.6466537700665L406.9398864239497 325.2756537700665C405.3758864239497 324.1386537700665 405.0268864239497 321.9486537700665 406.1658864239497 320.38265377006655C407.3048864239497 318.8166537700665 409.4948864239497 318.46965377006654 411.0588864239497 319.6076537700665L430.8508864239497 333.98665377006654L430.8508864239497 325.01765377006654L419.1748864239497 316.53465377006654C417.6068864239497 315.3996537700665 417.2618864239497 313.20765377006654 418.39788642394967 311.64165377006657C419.5368864239497 310.07565377006654 421.72988642394967 309.72865377006656 423.2938864239497 310.8656537700665L430.8508864239497 316.3576537700665L430.8508864239497 305.9296537700665C430.8508864239497 303.99365377006654 432.4178864239497 302.42665377006654 434.3538864239497 302.42665377006654C436.28988642394967 302.42665377006654 437.8608864239497 303.99365377006654 437.8608864239497 305.9296537700665L437.8608864239497 316.3576537700665L445.41488642394967 310.8656537700665C446.9788864239497 309.7266537700665 449.1728864239497 310.07565377006654 450.3108864239497 311.64165377006657C451.4458864239497 313.20765377006654 451.1008864239497 315.3996537700665 449.5338864239497 316.53465377006654L437.8608864239497 325.01765377006654L437.8608864239497 333.98665377006654L457.6488864239497 319.6076537700665C459.21288642394967 318.46865377006657 461.4068864239497 318.81565377006655 462.5428864239497 320.38265377006655C463.6808864239497 321.9476537700665 463.3328864239497 324.1386537700665 461.7688864239497 325.2756537700665L437.86188642394967 342.6466537700665L437.86188642394967 357.95065377006654L453.4858864239497 345.50565377006654C454.61188642394967 344.6076537700665 456.1728864239497 344.49065377006656 457.4218864239497 345.2116537700665C458.66988642394966 345.93165377006653 459.3508864239497 347.3406537700665 459.13388642394966 348.7646537700665L456.1668864239497 368.5216537700665L469.4238864239497 360.87065377006655L472.51088642394967 331.4776537700665C472.7138864239497 329.55565377006656 474.4328864239497 328.1556537700665 476.36188642394967 328.3606537700665C478.2878864239497 328.5616537700665 479.6808864239497 330.28665377006655 479.4808864239497 332.21065377006653L476.9228864239497 356.5386537700665L484.68688642394966 352.0576537700665L486.1968864239497 337.7036537700665C486.3998864239497 335.77965377006655 488.1228864239497 334.37865377006653 490.0488864239497 334.58465377006655C491.9708864239497 334.7856537700665 493.3708864239497 336.51065377006654 493.1678864239497 338.4366537700665L492.1898864239497 347.7256537700665L501.2208864239497 342.5116537700665C502.8948864239497 341.5456537700665 505.03988642394967 342.1176537700665 506.0078864239497 343.7956537700665C506.97488642394967 345.46965377006654 506.4008864239497 347.6126537700665 504.7238864239497 348.57965377006656L495.6928864239497 353.79465377006653L504.2238864239497 357.59465377006654Z " transform="matrix(1.6267833723357747,0,0,1.6267833723357747,-30.32064563674311,-24.800564973907612)"></path><g transform="matrix(3.2535667446715495,0,0,3.2535667446715495,-30.32064563674311,-24.800564973907612)"></g></g></svg>